<svg xmlns="http://www.w3.org/2000/svg"  viewBox="0 0 16 16" width="30px" height="30px"><path fill="#ffeea3" d="M11.497,9.4l0.828-3.587c0.687-2.115-0.51-4.375-2.672-5.046L9.226,0.634 C7.094,0.094,4.754,1.133,4.067,3.248l-0.373,1.15c-0.61,1.88,0.271,3.866,1.991,4.758H4.274c1.053,1.873,1,4.068,1.226,6.344h7 C11.253,13.918,11.468,12.117,11.497,9.4z"/><path fill="#ba9b48" d="M13.531,16H5l0.003-0.451c-0.045-0.445-0.078-0.887-0.111-1.324 c-0.133-1.754-0.259-3.41-1.054-4.823L3.419,8.656h0.789c-1.086-1.164-1.501-2.838-0.99-4.413l0.374-1.149 C4.193,1.239,5.989,0,8.078,0C8.503,0,8.939,0.046,9.35,0.15l0.452,0.14c1.188,0.368,2.152,1.171,2.716,2.261 c0.553,1.064,0.592,2.277,0.283,3.417l-0.805,3.493l-0.015,0.916c-0.043,2.148-0.071,3.567,0.911,4.813L13.531,16z M5.956,15 h5.629c-0.67-1.309-0.641-2.76-0.604-4.644l0.028-1.068l0.828-3.587c0.298-0.924,0.22-1.865-0.208-2.69 c-0.44-0.85-1.194-1.478-2.125-1.766L9.078,1.112C8.773,1.036,8.433,0.993,8.091,0.993c-1.654,0-3.08,0.968-3.548,2.409 L4.169,4.552C3.646,6.166,4.38,7.916,5.915,8.713l1.818,0.943H5.071c0.583,1.401,0.697,2.909,0.817,4.492 C5.91,14.431,5.932,14.715,5.956,15z"/><path fill="#a16a4a" d="M13.984,8.688l-0.947,0.03L13.031,7.5c-0.3,0.225-0.64,0.522-0.791,0.726 c-0.144,0.192-0.402,0.257-0.617,0.15c-0.216-0.104-0.327-0.346-0.267-0.577l0.504-1.926l0.967,0.254l-0.098,0.375 c0.256-0.179,0.458-0.304,0.508-0.335c0.157-0.097,0.352-0.099,0.509-0.01c0.158,0.09,0.256,0.259,0.254,0.441L13.984,8.688z"/><path fill="#ffeea3" d="M5.891,14.719L6.047,16h6.234c-0.194-0.182-0.466-0.604-0.766-1.109l-2.328-0.516L5.891,14.719z"/><path fill="#ffc49c" d="M7.5,9.672c-0.127,0-0.249,0.018-0.372,0.031C6.689,8.985,5.904,8.5,5,8.5 c-1.381,0-2.5,1.119-2.5,2.5c0,0.256,0.039,0.475,0.11,0.707c0.536,0.381,1.208,0.603,1.918,0.702 c0.145,1.268,1.412,2.263,2.971,2.263c1.657,0,3-1.119,3-2.5C10.5,10.792,9.157,9.672,7.5,9.672z"/><path fill="#a16a4a" d="M7.5,15.172c-1.649,0-3.04-0.977-3.397-2.327c-0.695-0.138-1.293-0.382-1.782-0.73l-0.139-0.099 l-0.049-0.162C2.041,11.556,2,11.292,2,11c0-1.654,1.346-3,3-3c0.941,0,1.807,0.435,2.373,1.177 C7.417,9.174,7.458,9.172,7.5,9.172c1.93,0,3.5,1.346,3.5,3S9.43,15.172,7.5,15.172z M3.044,11.396 c0.417,0.259,0.938,0.433,1.553,0.519l0.384,0.053l0.045,0.386c0.119,1.037,1.183,1.819,2.475,1.819c1.379,0,2.5-0.897,2.5-2 S8.879,9.984,7.5,9.984C7.423,9.984,6.955,10,6.955,10L6.701,9.776C6.333,9.173,5.697,9,5,9c-1.103,0-2,0.897-2,2 C3,11.137,3.014,11.262,3.044,11.396z"/><path fill="#a16a4a" d="M5.851,12.996c-1.17,0-2.309-0.271-3.382-0.813l0.451-0.893c1.814,0.916,3.771,0.95,5.816,0.096 l0.385,0.924C8.023,12.768,6.924,12.996,5.851,12.996z"/><circle cx="4.5" cy="7.5" r="2" fill="#fff"/><path fill="#788b9c" d="M4.5,10C3.121,10,2,8.879,2,7.5S3.121,5,4.5,5S7,6.121,7,7.5S5.879,10,4.5,10z M4.5,6 C3.673,6,3,6.673,3,7.5S3.673,9,4.5,9S6,8.327,6,7.5S5.327,6,4.5,6z"/><circle cx="4.516" cy="6.641" r=".31" fill="#36404d"/><g><path fill="#ffeea3" d="M7.385,9.5H4.5c-0.55,0-1-0.45-1-1v0c0-0.55,0.45-1,1-1h2.885V9.5z"/><path fill="#ba9b48" d="M7.885,10H4.5C3.673,10,3,9.327,3,8.5S3.673,7,4.5,7h3.385V10z M4.5,8C4.225,8,4,8.225,4,8.5 S4.225,9,4.5,9h2.385V8H4.5z"/></g><g><circle cx="8.469" cy="7.531" r="2.025" fill="#fff"/><path fill="#788b9c" d="M8.469,10.063c-1.396,0-2.531-1.135-2.531-2.531S7.073,5,8.469,5S11,6.135,11,7.531 S9.865,10.063,8.469,10.063z M8.469,6.012c-0.837,0-1.519,0.681-1.519,1.519S7.631,9.05,8.469,9.05s1.519-0.681,1.519-1.519 S9.306,6.012,8.469,6.012z"/></g><circle cx="8.688" cy="7.328" r=".31" fill="#36404d"/></svg>